<svg version="1.2" xmlns="http://www.w3.org/2000/svg" viewBox="0 0 1552 534" width="1552" height="534"><style></style><path  d="m214.7 171.8c73.1-31.8 126.4-19.6 210-24.8 46.6-5.2 79.5-30.9 101.7-58.2 28.6-35.3 39.6-73.2 39.6-73.2-90.3 8.2-146.7 3.7-214.1 3.7-137 0-248.7 108.7-254.8 245.2q1.4-1.9 3.1-4.2c11-14.5 49.1-60 114.5-88.5z"/><path  d="m395.4 390.2c-15.2 6.3-31.9 9.6-49.4 9.1-64.3-1.8-116.1-55-116.5-119.3-0.2-46.6 26.3-87.3 65.2-107.3 11.7-7.9 23.2-12 40.9-15.7-43.6 0.3-87 5.6-124.9 22.7-63.5 28.6-96.9 66.7-110.3 84.1-1.6 2.1-2.9 3.9-3.3 4.5-0.1 3.9-0.3 4.1-0.3 8 0 141.9 114.2 256.9 255.1 256.9 78.7 0 149-35.9 195.8-92.3l-30.5-29c-32.6-30.9-80.3-38.9-121.8-21.7z"/><path  d="m62.7 0c-34.2 0-62 27.8-62 62 0 34.2 27.8 62 62 62 34.3 0 62.1-27.8 62.1-62 0-34.2-27.7-62-62.1-62zm0 88c-14.3 0-25.9-11.6-25.9-26 0-14.3 11.7-26.1 26-26.1 14.4 0 26.1 11.8 26.1 26.1 0 14.4-11.8 26-26.2 26z"/><path fill-rule="evenodd" d="m1171.1 460.4v-62.1h12v51.3h28.2v10.8z"/><path fill-rule="evenodd" d="m1171.1 460.4v-62.1h12v51.3h28.2v10.8z"/><path fill-rule="evenodd" d="m1237.7 398.3v62h-12.2v-62z"/><path fill-rule="evenodd" d="m1237.7 398.3v62h-12.2v-62z"/><path fill-rule="evenodd" d="m1278.9 460.4h-8.9l-20.6-62.1h12.5l12.6 40.5 12.4-40.5h12.7z"/><path fill-rule="evenodd" d="m1278.9 460.4h-8.9l-20.6-62.1h12.5l12.6 40.5 12.4-40.5h12.7z"/><path fill-rule="evenodd" d="m1311.3 460.4v-62.1h40.9v10.9h-28.7v14.4h24.5v10.8h-24.5v15.2h28.7v10.8z"/><path fill-rule="evenodd" d="m1311.3 460.4v-62.1h40.9v10.9h-28.7v14.4h24.5v10.8h-24.5v15.2h28.7v10.8z"/><path fill-rule="evenodd" d="m1405.2 409.2v15.1h24.5v10.8h-24.5v25.3h-12.2v-62.1h40.9v10.9z"/><path fill-rule="evenodd" d="m1405.2 409.2v15.1h24.5v10.8h-24.5v25.3h-12.2v-62.1h40.9v10.9z"/><path fill-rule="evenodd" d="m1461 398.3v62h-12.2v-62z"/><path fill-rule="evenodd" d="m1461 398.3v62h-12.2v-62z"/><path fill-rule="evenodd" d="m1503.4 409.2v51.2h-12.1v-51.2h-16.2v-10.9h44.6v10.9z"/><path fill-rule="evenodd" d="m1503.4 409.2v51.2h-12.1v-51.2h-16.2v-10.9h44.6v10.9z"/><path fill-rule="evenodd" d="m1171.1 460.4v-62.1h12v51.3h28.2v10.8z"/><path fill-rule="evenodd" d="m1237.7 398.3v62h-12.2v-62z"/><path fill-rule="evenodd" d="m1278.9 460.4h-8.9l-20.6-62.1h12.5l12.6 40.5 12.4-40.5h12.7z"/><path fill-rule="evenodd" d="m1311.3 460.4v-62.1h40.9v10.9h-28.7v14.4h24.5v10.8h-24.5v15.2h28.7v10.8z"/><path fill-rule="evenodd" d="m1405.2 409.2v15.1h24.5v10.8h-24.5v25.3h-12.2v-62.1h40.9v10.9z"/><path fill-rule="evenodd" d="m1461 398.3v62h-12.2v-62z"/><path fill-rule="evenodd" d="m1503.4 409.2v51.2h-12.1v-51.2h-16.2v-10.9h44.6v10.9z"/><path fill-rule="evenodd" d="m1171.1 460.4v-62.1h12v51.3h28.2v10.8z"/><path fill-rule="evenodd" d="m1171.1 460.4v-62.1h12v51.3h28.2v10.8z"/><path fill-rule="evenodd" d="m1237.7 398.3v62h-12.2v-62z"/><path fill-rule="evenodd" d="m1237.7 398.3v62h-12.2v-62z"/><path fill-rule="evenodd" d="m1278.9 460.4h-8.9l-20.6-62.1h12.5l12.6 40.5 12.4-40.5h12.7z"/><path fill-rule="evenodd" d="m1278.9 460.4h-8.9l-20.6-62.1h12.5l12.6 40.5 12.4-40.5h12.7z"/><path fill-rule="evenodd" d="m1311.3 460.4v-62.1h40.9v10.9h-28.7v14.4h24.5v10.8h-24.5v15.2h28.7v10.8z"/><path fill-rule="evenodd" d="m1311.3 460.4v-62.1h40.9v10.9h-28.7v14.4h24.5v10.8h-24.5v15.2h28.7v10.8z"/><path fill-rule="evenodd" d="m1405.2 409.2v15.1h24.5v10.8h-24.5v25.3h-12.2v-62.1h40.9v10.9z"/><path fill-rule="evenodd" d="m1405.2 409.2v15.1h24.5v10.8h-24.5v25.3h-12.2v-62.1h40.9v10.9z"/><path fill-rule="evenodd" d="m1461 398.3v62h-12.2v-62z"/><path fill-rule="evenodd" d="m1461 398.3v62h-12.2v-62z"/><path fill-rule="evenodd" d="m1503.4 409.2v51.2h-12.1v-51.2h-16.2v-10.9h44.6v10.9z"/><path fill-rule="evenodd" d="m1503.4 409.2v51.2h-12.1v-51.2h-16.2v-10.9h44.6v10.9z"/><path  d="m633.2 361.9c-20 0-36.3-7.4-49-20.5-18.4-18.9-18-42.4-18-74.6 0-32.4-0.4-55.8 18-74.7 12.7-13.2 29-20.5 49-20.5 33.9 0 60.5 20 66.9 59.1h-36c-3.6-15-12.7-26.5-30.7-26.5-9.7 0-17.7 3.7-22.7 9.7-6.9 8-9 16.8-9 52.9 0 36 2.1 44.9 9 52.8 5 6.1 13 9.6 22.7 9.6 18 0 27.1-11.4 30.7-26.5h36c-6.4 39.2-33.1 59.2-66.9 59.2z"/><path fill-rule="evenodd" d="m724.4 360.2v-181.7h119.7v31.7h-84.2v42.6h71.8v31.7h-71.8v44.1h84.2v31.6z"/><path fill-rule="evenodd" d="m878.8 360.2v-181.7h35.6v150.1h82.5v31.6z"/><path  d="m1075.8 361.9c-27.5 0-48.4-5.9-66.4-24l23-23c11.5 11.5 27.1 15.4 43.9 15.4 20.9 0 32.2-7.9 32.2-22.5 0-6.3-1.9-11.7-5.7-15.3-3.5-3.3-7.7-5.2-16.1-6.4l-21.9-3.1c-15.6-2.3-27.1-7.2-35.3-15.1-8.7-8.7-12.9-20.4-12.9-35.7 0-32.4 24-55.1 63.3-55.1 25 0 43.1 6.2 58.7 21.2l-22.4 22.2c-11.5-11-25.3-12.5-37.4-12.5-18.8 0-28 10.4-28 22.9 0 4.6 1.5 9.5 5.4 13 3.5 3.3 9.4 6.1 16.8 7.1l21.4 3.1c16.7 2.3 27.2 6.9 34.7 14 9.8 9.2 14.2 22.6 14.2 38.6 0 35.2-29.4 55.2-67.5 55.2z"/><path fill-rule="evenodd" d="m1205.8 178.5v181.7h-35.5v-181.7z"/><path  d="m1308.5 361.9c-37.4 0-67-25.3-67-63.9v-119.4h35.5v118.1c0 20.9 12.3 33.5 31.5 33.5 19.1 0 31.7-12.6 31.7-33.5v-118.2h35.2v119.4c-0.1 38.6-29.7 64-66.9 64z"/><path  d="m1458.6 361.9c-27.6 0-48.5-5.9-66.4-24l23-23c11.5 11.5 27.1 15.4 44 15.4 20.9 0 32.1-7.9 32.1-22.5 0-6.3-1.7-11.7-5.6-15.3-3.5-3.3-7.7-5.2-16.1-6.4l-22-3.1c-15.5-2.3-27-7.2-35.3-15.1-8.7-8.7-13.1-20.4-13.1-35.7 0-32.4 24-55.1 63.4-55.1 25.1 0 43.1 6.2 58.7 21.2l-22.5 22.2c-11.5-11-25.3-12.5-37.3-12.5-19 0-28.2 10.4-28.2 22.9 0 4.6 1.6 9.5 5.4 13 3.6 3.3 9.5 6.1 16.8 7.1l21.5 3.1c16.6 2.3 27 6.9 34.7 14 9.7 9.2 14.1 22.6 14.1 38.6 0.2 35.2-29.2 55.2-67.2 55.2z"/><path  d="m1541.5 345.2c1.5-0.7 2.3-1.8 2.3-3.2 0-1.3-0.5-2.4-1.4-3-0.9-0.6-2-1-4.4-1h-0.2c-2 0-3.6 0.2-4.9 0.3h-0.2c-0.1 0-0.2 0.1-0.2 0.2l0.1 13q0 0.4 0.3 0.4h3q0.4 0 0.4-0.4v-4.8h1.1c1.5 0 2.2 0.5 2.4 1.7l0.1 0.6c0.4 1.4 0.6 2.2 1 2.6 0 0 0.1 0.2 0.2 0.2h3.2c0.1 0 0.2-0.2 0.2-0.2q0-0.1 0-0.3c-0.2-0.6-0.5-1.3-0.9-3.1-0.4-1.5-1-2.5-2.1-3zm-1.4-2.8c0 0.4-0.2 0.7-0.4 1q-0.7 0.7-2.4 0.7h-1.2v-3.3c0.3 0 0.7-0.1 1.4-0.1 1.6 0 2.4 0.7 2.6 1.7z"/><path  d="m1538 331.5h-0.1c-7.7 0.2-13.7 6-13.6 13.6 0 3.6 1.4 6.9 3.9 9.3 2.7 2.5 6 3.9 9.8 3.9h0.1c3.8 0 7.2-1.5 9.8-4 2.4-2.5 3.8-6 3.8-9.6-0.3-7.3-6.1-13.2-13.7-13.2zm9.6 13.5c0 2.7-1 5.5-3 7.3-1.7 1.7-4 2.8-6.5 2.8-0.1 0-0.1 0-0.1 0-2.8 0-5.2-1.1-7-2.9-1.9-1.8-2.9-4.4-2.9-7.1 0-2.8 0.9-5.3 2.8-7.2 1.8-2 4.2-3 6.9-3h0.1c2.6 0 5 1 6.9 2.8 1.8 1.9 2.8 4.5 2.8 7.3z"/></svg>