<svg version="1.2" xmlns="http://www.w3.org/2000/svg" viewBox="0 0 1546 433" width="1546" height="433"><style>.a{fill:#ff555f}.b{fill:#00aecf}.c{fill:#023267}</style><path fill-rule="evenodd" class="a" d="m309.5 110.4l-77.8 55.1-76.5-54.2-76.5 54.3-77.7-55.2 154.2-109.4z"/><path fill-rule="evenodd" class="b" d="m158.7 433l-157.7-107.4v-214.9l79.4 54.1v106.6l78.3 53.3zm0-212.5v109.7h75.4v-109.7z"/><path fill-rule="evenodd" class="c" d="m158.7 433l157.6-106.3v-106.3l-157.6 105.5z"/><path fill-rule="evenodd" class="a" d="m237.1 275.3l-78.4-55 78.1-54.7 79.5 54.7z"/><path fill-rule="evenodd" class="b" d="m493.4 303.4c6.9 13.4 20.8 22.7 36.7 22.7 23.2 0 41.7-19.5 41.7-43.5v-1.6l-0.6-0.3c-12.9 12.5-29.5 20.2-48 20.2-39.8 0-71.9-35.5-71.9-78.9 0-43.8 32.1-78.9 71.9-78.9 18.5 0 35.1 7.7 48 20.4l0.6-0.3v-16h37.1v135.4c0 42.8-32.7 77.3-77.1 77.3-29.8 0-55.7-15.3-69.6-38.6zm80.8-81.4c0-25.1-19.1-45.4-42.9-45.4-23.7 0-42.9 20.3-42.9 45.4 0 25 19.2 45.3 42.9 45.3 23.8 0 42.9-20.3 42.9-45.3zm158.4 30.6l25.6 24.6c-14.8 14.6-35.4 23.6-58.1 23.6-45.2 0-81.2-35.1-81.2-78.9 0-43.7 35-78.8 79-78.8 10.3-0.1 20.6 2 30.1 5.9 9.6 4 18.3 9.8 25.6 17.1 7.3 7.4 13.1 16.1 17 25.6 4 9.6 6 19.9 5.9 30.2 0 7-0.6 9-0.6 9h-120.3c0 16.6 20 36 42.9 36 13.5 0 25.2-5.7 34.1-14.3zm4.3-51.4l0.3-0.7c-8.2-14.7-22.6-24.6-39.3-24.6-17.4 0-30.8 9.3-39.7 24.6l0.3 0.7zm95.3 22.8v76.8h-35.9v-153.5h35.9v18.7l0.7 0.3c12.2-15.4 28.5-23.2 45.5-23.2 64.1 0 65.7 59.6 65.7 78v79.7h-35.9v-76.8c0-18.3-0.3-46.5-37.5-46.5-21.2 0-38.5 20.6-38.5 46.5zm217.6 79.9c-18.9 0-35.1-7.5-48.3-20.8l-0.7 0.3v76.5h-37v-212.6h37v16l0.7 0.3c13.2-12.7 29.4-20.5 48.3-20.5 39.6 0 71.7 35.8 71.7 80.4 0 44.6-32.1 80.4-71.7 80.4zm34.7-80.6c0-25.5-19.2-46.1-42.8-46.1-23.7 0-42.8 20.6-42.8 46.1 0 25.5 19.1 46.1 42.8 46.1 23.6 0 42.8-20.6 42.8-46.1zm118.7-80.2c18.6 0 35.1 7.6 48.1 20.4l0.6-0.3v-16h37.1v149.4h-37.1v-15.3l-0.6-0.6c-13 12.4-29.5 20.1-48.1 20.1-39.7 0-71.8-35.1-71.8-78.9 0-43.7 32.1-78.8 71.8-78.8zm50.7 78.7c0-25-19.1-45.2-42.7-45.2-23.7 0-42.8 20.2-42.8 45.2 0 24.9 19.1 45.1 42.8 45.1 23.6 0 42.7-20.2 42.7-45.1zm192.8 55.4c-7.6 7.5-16.5 13.5-26.4 17.5-9.8 4.1-20.4 6.1-31.1 6.1-44.8 0-80.5-35.1-80.5-78.9 0-43.7 35.7-78.8 80.5-78.8 22.4 0 42.9 8.9 57.5 23.6l-25.7 23.6c-4-4.4-9-7.8-14.4-10.2-5.5-2.4-11.4-3.6-17.4-3.5-24.6 0-44.1 20.4-44.1 45.3 0 24.9 19.5 45 44.1 45 6.1 0 12.1-1.2 17.7-3.7 5.6-2.4 10.6-5.9 14.8-10.3zm72.8-101.4v115.2h-37.2v-115.2h-25.8v-34.5h25.8v-67.2h37.2v67.2h25.7v34.5z"/></svg>