<svg version="1.2" xmlns="http://www.w3.org/2000/svg" viewBox="0 0 1534 410" width="1534" height="410">
	<title>sofi-logo</title>
	<style>
		.s0 { fill: #00a2c7 } 
	</style>
	<path class="s0" d="m447.4 114.1c-81.3 0-147.8 66.4-147.8 147.6 0 81.2 66.5 147.7 147.8 147.7 81.3 0 147.8-66.5 147.8-147.7 0-81.2-66.5-147.6-147.8-147.6zm72 145.8c0 40.6-31.4 73.8-70.2 73.8-38.8 0-70.2-33.2-70.2-73.8 0-40.6 31.4-73.9 70.2-73.9 38.8 0 70.2 33.3 70.2 73.9zm445.3-140.3c-1.9-1.9-3.7-1.9-5.5-1.9h-59.2c-3.7 0-7.4 3.7-7.4 7.4v267.7c0 1.8 0 3.7 1.9 5.5 1.8 1.9 3.7 1.9 5.5 1.9h59.2c3.6 0 7.3-3.7 7.3-7.4v-267.7c0-1.8 0-3.7-1.8-5.5zm-35.1-36.9c22.2 0 40.6-18.5 40.6-40.6 1.9-22.2-18.4-40.6-40.6-40.6-22.2 0-40.7 18.4-40.7 40.6 0 24 18.5 40.6 40.7 40.6zm-79.5-75.7h-216.1c-3.7 0-7.4 3.7-7.4 7.4v378.4c0 1.8 0 3.7 1.8 5.5 1.9 1.9 3.7 1.9 5.6 1.9h59.1c3.7 0 7.4-3.7 7.4-7.4v-153.2h133c1.9 0 3.7 0 5.6-1.9 1.8-1.8 1.8-3.7 1.8-5.5v-55.4c0-3.7-3.7-7.4-7.4-7.4h-133v-92.3h149.6c1.9 0 3.7 0 5.6-1.8 1.8-1.9 1.8-3.7 1.8-5.5v-55.4c0-3.7-3.7-7.4-7.4-7.4zm-689.1 164.3c-59.1-25.9-77.6-36.9-77.6-59.1 0-29.5 27.7-38.8 53.6-38.8 27.7 0 57.2 14.8 57.2 55.4q0 5.6 5.6 5.6h64.6c1.9-1.9 3.7-3.7 3.7-5.6 0-73.8-53.5-127.3-131.1-127.3-77.6 0-127.5 44.3-127.5 110.7 0 79.4 59.1 103.4 116.4 125.5l3.7 1.9c53.6 20.3 72 29.5 72 55.3 0 35.1-36.9 40.7-57.2 40.7-38.8 0-68.4-27.7-68.4-64.7v-3.6q0-5.6-5.6-5.6h-64.6c-1.9 0-5.6 1.9-5.6 5.6v5.5c0 81.2 59.2 136.6 142.3 136.6 79.5 0 133-46.2 133-112.6 1.9-68.3-33.2-92.3-114.5-125.5zm1372.8 217.8c0 11.1-7.4 18.4-18.5 18.4-11.1 0-18.5-7.3-18.5-18.4 0-11.1 7.4-18.5 18.5-18.5 11.1 0 18.5 7.4 18.5 18.5zm-33.3 0c0 9.2 5.5 14.7 14.8 14.7 9.2 0 14.8-5.5 14.8-14.7 0-9.2-5.6-14.8-14.8-14.8-9.3 0-14.8 5.6-14.8 14.8zm22.2-3.7c0 1.8-1.9 3.7-3.7 5.5l3.7 7.4h-5.6l-3.7-7.4h-1.8v7.4h-3.7v-18.4h7.4c3.7 0 7.4 1.8 7.4 5.5zm-9.3-1.9v5.6h1.9c1.8 0 3.7-1.9 3.7-1.9 0-1.8-1.9-1.8-3.7-1.8h-1.9zm-75.7-382.1c-35.1 0-64.7 29.5-64.7 64.6 0 35.1 29.6 64.6 64.7 64.6 35.1 0 64.7-29.5 64.7-64.6 0-35.1-29.6-64.6-64.7-64.6zm0 16.6c25.9 0 46.2 20.3 46.2 46.2 0 25.8-20.3 46.1-46.2 46.1-25.9 0-46.2-20.3-46.2-46.1 0-25.9 20.3-46.2 46.2-46.2z"/>
	<path fill-rule="evenodd" class="s0" d="m1468.5 261.1c-31.4 17.1-70.6 5.5-87.7-25.9-17.1-31.4-5.5-70.6 25.9-87.6 31.4-17.1 70.6-5.5 87.7 25.9 17.1 31.4 5.5 70.5-25.9 87.6z"/>
	<path fill-rule="evenodd" class="s0" d="m1468.4 399.5c-31.4 17.1-70.6 5.5-87.7-25.9-17.1-31.3-5.5-70.5 25.9-87.6 31.4-17 70.6-5.5 87.7 25.9 17.1 31.4 5.5 70.6-25.9 87.6z"/>
	<path class="s0" d="m1299.1 139.9c-35.1 0-64.7 29.5-64.7 64.6 0 35.1 29.6 64.6 64.7 64.6 35.1 0 64.7-29.5 64.7-64.6 0-35.1-29.6-64.6-64.7-64.6zm0 18.5c12.9 0 24 5.5 33.3 12.9 9.2 9.2 12.9 20.3 12.9 33.2 0 25.8-20.3 46.1-46.2 46.1-12.9 0-24-5.5-33.2-12.9-9.3-9.2-13-20.3-13-33.2-1.8-25.8 20.3-46.1 46.2-46.1z"/>
	<path fill-rule="evenodd" class="s0" d="m1219.2 230.2c-14.4 32.6-52.6 47.3-85.3 32.9-32.7-14.5-47.4-52.6-32.9-85.3 14.5-32.6 52.6-47.4 85.3-32.9 32.7 14.5 47.4 52.6 32.9 85.3z"/>
	<path fill-rule="evenodd" class="s0" d="m1358.1 91.8c-14.5 32.6-52.6 47.3-85.3 32.9-32.7-14.5-47.4-52.6-33-85.3 14.5-32.6 52.7-47.3 85.4-32.9 32.6 14.5 47.4 52.6 32.9 85.3z"/>
	<path fill-rule="evenodd" class="s0" d="m1219.4 91.6c-14.5 32.7-52.6 47.4-85.3 32.9-32.7-14.5-47.4-52.6-32.9-85.2 14.4-32.7 52.6-47.4 85.3-32.9 32.7 14.4 47.4 52.5 32.9 85.2z"/>
	<path fill-rule="evenodd" class="s0" d="m1357.8 368.9c-14.5 32.6-52.7 47.3-85.4 32.9-32.7-14.5-47.4-52.6-32.9-85.3 14.5-32.6 52.6-47.3 85.3-32.9 32.7 14.5 47.4 52.6 33 85.3z"/>
	<path class="s0" d="m1160.5 278.3c-35.1 0-64.6 29.6-64.6 64.6 0 35.1 29.5 64.6 64.6 64.6 35.1 0 64.7-29.5 64.7-64.6 0-35-29.6-64.6-64.7-64.6zm0 18.5c13 0 24.1 5.5 33.3 12.9 9.2 9.2 12.9 20.3 12.9 33.2 0 25.9-20.3 46.2-46.2 46.2-25.8 0-46.1-20.3-46.1-46.2-1.9-25.8 20.3-46.1 46.1-46.1z"/>
</svg>